<?xml version="1.0" encoding="UTF-8"?>
<svg xmlns="http://www.w3.org/2000/svg" xmlns:xlink="http://www.w3.org/1999/xlink" id="Ebene_1" data-name="Ebene 1" version="1.1" viewBox="0 0 235 235" width="235" height="235">
  <defs>
    <style>
      .cls-1 {
        clip-path: url(#clippath);
      }

      .cls-2, .cls-3, .cls-4 {
        stroke-width: 0px;
      }

      .cls-2, .cls-5 {
        fill: none;
      }

      .cls-3 {
        fill: #737372;
      }

      .cls-6 {
        clip-path: url(#clippath-1);
      }

      .cls-7 {
        clip-path: url(#clippath-2);
      }

      .cls-5 {
        stroke: #f0801c;
        stroke-width: 1.9px;
      }

      .cls-4 {
        fill: #f0801c;
      }
    </style>
    <clipPath id="clippath">
      <rect class="cls-2" x="-227.5" y="-370.4" width="690" height="975.9"/>
    </clipPath>
    <clipPath id="clippath-1">
      <rect class="cls-2" x="-227.5" y="-370.4" width="690" height="975.9"/>
    </clipPath>
    <clipPath id="clippath-2">
      <rect class="cls-2" x="-227.5" y="-370.4" width="690" height="975.9"/>
    </clipPath>
  </defs>
  <g class="cls-1">
    <g class="cls-6">
      <path class="cls-4" d="M215.1,183.4c-7.9,0-13.4-6.2-13.4-13.6s5.9-13.6,13.6-13.6,13.6,5.6,13.6,13.6c0,6.5-4.5,13.6-13.8,13.6M200.3,184.1h1.5v-7.1h.1c2.5,4.9,7.3,7.8,13.3,7.8,9.4,0,15.1-7.3,15.1-15.1s-5.8-15.1-15.1-15.1c-6.9.1-11.3,3.8-13.3,8h-.1v-18.7h-1.5v40.1Z"/>
      <path class="cls-3" d="M166.3,155.5h-1.5v28.7h1.5v-16.5c0-7.2,4.4-11.4,11.6-11.5,2.9,0,5.9.7,8.1,2.7,2.2,1.9,3.5,5.1,3.5,10.1v15.2h1.5v-15.2c0-5.1-1.4-9-4.2-11.4-2.3-1.9-5.3-2.9-9-2.9-4.5-.1-9.7,2.1-11.5,6.2h-.1v-5.5ZM155.6,144.1h-1.5v4.9h1.5v-4.9ZM155.6,155.5h-1.5v28.7h1.5v-28.7ZM103.4,155.5h-1.5v28.7h1.5v-16.3c0-4.2,1.1-6.7,2.7-8.5,1.4-1.8,4.2-3.2,7-3.1,3.4.1,5.9,1.2,7.6,3.4,1.5,1.9,2.2,4,2.1,8.5v16.1h1.5v-16.1c0-4.5.4-6.2,2.2-8.6,1.8-2.3,4.9-3.3,7.4-3.3s5.2.9,6.7,2.4c2.2,2.2,2.9,5.5,2.9,9.5v16.1h1.5v-16.1c0-4.4-.9-8.1-3.3-10.4-1.8-1.8-4.4-2.9-7.8-2.9s-6.3,1.3-8.3,3.5c-1.2,1.3-1.7,2.5-2,3.4h-.1c-.4-1.3-1.1-2.5-1.9-3.4-1.9-2.3-5-3.5-8.4-3.5s-6.9.5-9.5,5.8h-.1v-5.1ZM77.8,183.4c-9.3,0-13.7-7.1-13.8-13.6,0-8.1,6.1-13.6,13.6-13.6s13.6,5.8,13.6,13.6-5.5,13.6-13.4,13.6M92.6,155.5h-1.5v7.3h-.1c-1.4-3.7-6.4-8-13.3-8s-15.1,7.1-15.1,15.1,5.7,15.1,15.1,15.1,10.8-3,13.3-7.8h.1v7.1h1.5v-28.7ZM50.2,155.5h-6.3v1.4h6.3v27.3h1.5v-27.3h7.4v-1.4h-7.4v-11.4h-1.5v11.4ZM38.5,144.1h-1.5v4.9h1.5v-4.9ZM38.5,155.5h-1.5v28.7h1.5v-28.7ZM17.9,184.1h1.9l11.8-28.7h-1.7l-11,26.9-11.2-26.9h-1.6l11.8,28.7Z"/>
      <path class="cls-3" d="M221.7,197h-.5v9.9h.5v-5.7c0-2.5,1.5-3.9,4-4,1,0,2,.2,2.8.9.7.7,1.2,1.8,1.2,3.5v5.2h.5v-5.2c0-1.8-.5-3.1-1.4-3.9-.8-.7-1.8-1-3.1-1-1.6,0-3.4.7-4,2.1h0v-1.9ZM217.5,201.9c0,2.6-1.9,4.7-4.6,4.7s-4.8-2.5-4.8-4.7c0-2.8,2.1-4.7,4.7-4.7s4.7,2,4.7,4.7M208.1,208.1c.9,2,2.9,3,4.9,3s5-1.2,5-5.3v-8.8h-.5v2.5h0c-.5-1.3-2.2-2.8-4.6-2.8s-5.3,2.5-5.3,5.2,2,5.2,5.3,5.2,3.7-1,4.6-2.7h0v1.5c0,2.9-2.3,4.7-4.6,4.7s-2-.3-2.9-1c-.7-.5-1-1.1-1.3-1.5h-.6ZM205.1,193.1h-.5v1.7h.5v-1.7ZM205.1,197h-.5v9.9h.5v-9.9ZM195.8,204.1c-.1,1.8,1.4,3,3,3s3-1.3,2.9-3c-.1-2.1-1.6-2.5-2.9-2.8-1.4-.4-2.1-.8-2.2-2,0-1.2.8-2.1,2.2-2.1,1.1,0,2.1.6,2.1,2.1h.5c0-1.7-1.2-2.6-2.6-2.6-1.5,0-2.7.9-2.7,2.6,0,1.7,1.2,2.1,2.7,2.6,1.6.4,2.4,1,2.4,2.4,0,1.3-.9,2.4-2.4,2.4s-2.5-.9-2.5-2.5h-.5ZM184.2,201.5c.1-2.5,2.2-4.3,4.7-4.3,2.3,0,4.5,1.9,4.6,4.3h-9.3ZM194,202v-.3c-.1-3.1-2.5-5-5.2-5s-5.2,2.2-5.2,5.2h0c0,2.9,2.2,5.2,5.2,5.2,2,0,3.9-1,4.8-3.1h-.6c-.8,1.7-2.4,2.6-4.2,2.6-1.9,0-4.6-1.4-4.7-4.7h9.9ZM176.2,206.6c-3.2,0-4.7-2.5-4.7-4.7,0-2.8,2.1-4.7,4.7-4.7s4.7,2,4.7,4.7-1.9,4.7-4.6,4.7M181.3,193.1h-.5v6.4h0c-.5-1.3-2.2-2.8-4.6-2.8s-5.2,2.5-5.2,5.2,2,5.2,5.2,5.2,3.7-1,4.6-2.7h0v2.5h.5v-13.8ZM155.3,197.7c-.4-.5-1-1.1-1-2s.8-2.3,2.4-2.3c1.5,0,2.5,1.2,2.5,2.5s-.9,2-3,2.9l-.9-1ZM159.7,203.1l-.5,1c-.9,1.8-1.8,2.4-3.2,2.4-2.2,0-3.4-1.6-3.5-3.3,0-1.3.6-2.7,3.5-3.9l3.7,3.8ZM163,198.2h-.6l-2.3,4.5-3.4-3.5c1.6-.7,3.2-1.4,3.2-3.3s-1.3-3-3.1-3-2.9,1.4-2.9,2.9c0,1.1.5,1.6,1.2,2.4l.7.8c-1.5.6-3.7,1.9-3.7,4.3s1.5,3.9,4,3.9,3.1-1.5,3.8-2.7l.4-.9,3.5,3.5.4-.4-3.6-3.7,2.5-4.9ZM135.2,197h-.5v9.9h.5v-5.7c0-2.5,1.5-3.9,4-4,1,0,2,.2,2.8.9.7.7,1.2,1.8,1.2,3.5v5.2h.5v-5.2c0-1.8-.5-3.1-1.4-3.9-.8-.7-1.8-1-3.1-1-1.6,0-3.4.7-4,2.1h0v-1.9ZM122.3,201.9c0-2.7,2-4.7,4.7-4.7s4.7,2,4.7,4.7-2,4.7-4.7,4.7-4.7-2-4.7-4.7M121.8,201.9c0,3,2.2,5.2,5.2,5.2s5.2-2.2,5.2-5.2-2.2-5.2-5.2-5.2-5.2,2.2-5.2,5.2M119.3,193.1h-.5v1.7h.5v-1.7ZM119.3,197h-.5v9.9h.5v-9.9ZM113.8,197h-2.2v.5h2.2v9.4h.5v-9.4h2.5v-.5h-2.5v-3.9h-.5v3.9ZM104.7,206.6c-3.2,0-4.7-2.5-4.7-4.7,0-2.8,2.1-4.7,4.7-4.7s4.7,2,4.7,4.7-1.9,4.7-4.6,4.7M109.8,197h-.5v2.5h0c-.5-1.3-2.2-2.8-4.6-2.8s-5.2,2.5-5.2,5.2,2,5.2,5.2,5.2,3.7-1,4.6-2.7h0v2.5h.5v-9.9ZM91.6,193.1h-.5v13.8h.5v-1.8l2.1-2.8,3.6,4.6h.7l-4-5.1,3.7-4.8h-.7l-5.4,7.2h0v-11.1ZM87.9,193.1h-.5v1.7h.5v-1.7ZM87.9,197h-.5v9.9h.5v-9.9ZM75.7,197h-.5v9.9h.5v-5.7c0-2.5,1.5-3.9,4-4,1,0,2,.2,2.8.9.7.7,1.2,1.8,1.2,3.5v5.2h.5v-5.2c0-1.8-.5-3.1-1.4-3.9-.8-.7-1.8-1-3.1-1-1.6,0-3.4.7-4,2.1h0v-1.9ZM71.4,206.9h.5v-9.9h-.5v5.6c0,2.6-1.5,4-4,4-1,0-2-.2-2.8-.9-.7-.7-1.2-1.8-1.2-3.5v-5.2h-.5v5.2c0,1.8.5,3.1,1.4,3.9.8.7,1.8,1,3.1,1,1.6,0,3.4-.7,4-2.2h0v2ZM45.8,197h-.5v9.9h.5v-5.6c0-1.4.4-2.3.9-2.9.5-.6,1.4-1.1,2.4-1.1,1.2,0,2,.4,2.6,1.2.5.7.7,1.4.7,2.9v5.5h.5v-5.5c0-1.5.1-2.1.8-3,.6-.8,1.7-1.1,2.6-1.1s1.8.3,2.3.8c.7.7,1,1.9,1,3.3v5.5h.5v-5.5c0-1.5-.3-2.8-1.1-3.6-.6-.6-1.5-1-2.7-1s-2.2.4-2.9,1.2c-.4.4-.6.9-.7,1.2h0c-.1-.4-.4-.9-.7-1.2-.7-.8-1.7-1.2-2.9-1.2s-2.4.2-3.3,2h0v-1.8ZM27.8,197h-.5v9.9h.5v-5.6c0-1.4.4-2.3.9-2.9.5-.6,1.4-1.1,2.4-1.1,1.2,0,2,.4,2.6,1.2.5.7.7,1.4.7,2.9v5.5h.5v-5.5c0-1.5.1-2.1.8-3,.6-.8,1.7-1.1,2.6-1.1s1.8.3,2.3.8c.7.7,1,1.9,1,3.3v5.5h.5v-5.5c0-1.5-.3-2.8-1.1-3.6-.6-.6-1.5-1-2.7-1s-2.2.4-2.9,1.2c-.4.4-.6.9-.7,1.2h0c-.1-.4-.4-.9-.7-1.2-.7-.8-1.7-1.2-2.9-1.2s-2.4.2-3.3,2h0v-1.8ZM14.8,201.9c0-2.7,2-4.7,4.7-4.7s4.7,2,4.7,4.7-2,4.7-4.7,4.7-4.7-2-4.7-4.7M14.3,201.9c0,3,2.2,5.2,5.2,5.2s5.2-2.2,5.2-5.2-2.2-5.2-5.2-5.2-5.2,2.2-5.2,5.2M6.5,193.1h-.5v13.8h.5v-1.8l2.1-2.8,3.6,4.6h.7l-4-5.1,3.7-4.8h-.7l-5.4,7.2h0v-11.1Z"/>
    </g>
    <rect class="cls-5" x="68.8" y="25.9" width="98.9" height="98.9"/>
    <g class="cls-7">
      <path class="cls-4" d="M119.6,92.2c-9.5,0-16.2-7.5-16.2-16.5s7.1-16.5,16.4-16.5,16.4,6.7,16.4,16.5c0,7.8-5.4,16.5-16.6,16.5M101.7,93.1h1.8v-8.6h.1c3,5.9,8.8,9.5,16.1,9.5,11.4,0,18.2-8.8,18.2-18.2s-7.1-18.2-18.2-18.2c-8.4.1-13.7,4.6-16.1,9.7h-.1v-22.5h-1.8v48.3Z"/>
    </g>
  </g>
</svg>
